# xmcd
#
# Track frame offsets: 
#        150
#        21950
#        41325
#        58093
#        76808
#        94933
#        114405
#        134973
#        155533
#        178673
#        200003
#        218883
#
# Disc length: 3218 seconds
#
# Revision: 3
# Processed by: cddbd v1.5.2PL0 Copyright (c) Steve Scherf et al.
# Submitted via: ExactAudioCopy v1.0b3
#
DISCID=ab0c900c
DTITLE=Bee Gees, The - Still Waters
DYEAR=1997
DGENRE=Pop - 1990s
TTITLE0=Alone
TTITLE1=I Surrender
TTITLE2=I Could Not Love You More
TTITLE3=Still Waters Run Deep
TTITLE4=My Lover's Prayer
TTITLE5=With My Eyes Closed
TTITLE6=Irresistible Force
TTITLE7=Closer Than Close
TTITLE8=I Will
TTITLE9=Obsessions
TTITLE10=Miracles Happen
TTITLE11=Smoke And Mirrors
EXTD=
EXTT0=
EXTT1=
EXTT2=
EXTT3=
EXTT4=
EXTT5=
EXTT6=
EXTT7=
EXTT8=
EXTT9=
EXTT10=
EXTT11=
PLAYORDER=
